<?xml version="1.0" encoding="UTF-8"?>
<svg id="Layer_1" data-name="Layer 1" xmlns="http://www.w3.org/2000/svg" viewBox="0 0 142.38 27.22">
  <defs>
    <style>
      .cls-1 {
        fill: #1e2f44;
      }

      .cls-2 {
        fill: #7bb2dd;
      }
    </style>
  </defs>
  <path class="cls-1" d="M27.18,13.42c-1.3,0-2.33-.3-2.33-1.92,0-1.49-.08-3.97-.1-4.6h-4.11c0,.83,0,1.84.01,2.88h2.99c0,.3,0,.55,0,.76h-3c0,.56,0,1.13,0,1.67h3.03c.02.21.08.48.2.76h-3.23c0,.62,0,1.19,0,1.67h7.39c.21,0,.38.17.38.38s-.17.38-.38.38h-7.39c0,.72-.08,1.35-.23,1.87h7.62c.21,0,.38.17.38.38s-.17.38-.38.38h-7.92c-.6,1.11-1.69,1.6-3.29,1.6-1.01,0-1.92,0-2.72,0v1.28c0,1.34,1.09,2.43,2.43,2.43h6.3c.93,1.4,1.19,3.14,1.13,3.51-.07.44.57.78,1.69-.61.65-.81,1.5-2.05,2.07-2.9h1.3c1.34,0,2.43-1.09,2.43-2.43v-7.48h-4.3ZM28.06,20.45h-10.42c-.21,0-.38-.17-.38-.38s.17-.38.38-.38h10.42c.21,0,.38.17.38.38s-.17.38-.38.38ZM27.16,12.72h4.22l-5.83-5.71c-.01.98-.04,3.38-.04,4.48,0,.96.77,1.23,1.65,1.23Z"/>
  <path class="cls-2" d="M6.78,5.23c0-1.25-.04-3.98-.05-5.09L.11,6.62h4.79c1.01,0,1.88-.3,1.88-1.4ZM16.94,0H7.63c-.02.72-.11,3.53-.11,5.23,0,1.84-1.17,2.18-2.64,2.18H0v8.5c0,1.52,1.23,2.76,2.76,2.76h1.47c.65.97,1.61,2.37,2.36,3.29,1.26,1.57,1.99,1.19,1.91.69-.06-.42.23-2.39,1.28-3.98h7.16c1.52,0,2.76-1.23,2.76-2.76V2.76c0-1.52-1.23-2.76-2.76-2.76ZM15.71,15.39H3.88c-.24,0-.43-.19-.43-.43s.19-.43.43-.43h11.83c.24,0,.43.19.43.43s-.19.43-.43.43ZM15.71,12.64H3.88c-.24,0-.43-.19-.43-.43s.19-.43.43-.43h11.83c.24,0,.43.19.43.43s-.19.43-.43.43ZM15.71,9.65H3.88c-.24,0-.43-.19-.43-.43s.19-.43.43-.43h11.83c.24,0,.43.19.43.43s-.19.43-.43.43ZM15.71,6.89h-7.11c.13-.31.2-.62.23-.86h6.88c.24,0,.43.19.43.43s-.19.43-.43.43ZM15.71,4.14h-6.83c0-.24,0-.53,0-.86h6.83c.24,0,.43.19.43.43s-.19.43-.43.43Z"/>
  <g>
    <path class="cls-1" d="M39.29,18.35c0-.88.86-1.52.95-1.44.7.64,1.93,1.19,3.29,1.19.8,0,1.23-.23,1.23-.64,0-.49-.64-.62-1.62-.84-1.27-.27-3.6-.7-3.6-3.19,0-2.06,1.64-3.37,4.5-3.37,2.18,0,3.54.49,4.05,1.38.18.29.27.6.27.95,0,.93-.99,1.6-1.05,1.54-.74-.72-1.93-1.3-2.98-1.3-.76,0-1.19.25-1.19.68,0,.47.7.55,1.75.8,1.29.29,3.72.74,3.72,3.17,0,2.14-1.64,3.39-4.77,3.39-1.62,0-2.8-.25-3.54-.68-.7-.39-1.01-.95-1.01-1.64Z"/>
    <path class="cls-1" d="M52.94,5.38c1.29,0,2.12.72,2.12,1.89s-.78,1.87-2.1,1.87-2.12-.72-2.12-1.87.8-1.89,2.1-1.89ZM50.97,12.04c0-1.4.76-1.89,1.77-1.89h.41c1.07,0,1.77.43,1.77,1.89v6.6c0,1.42-.72,1.91-1.73,1.91h-.41c-1.07,0-1.81-.45-1.81-1.91v-6.6Z"/>
    <path class="cls-1" d="M59.93,15.35l-2.79-4.03c-.14-.21.99-1.21,2.22-1.21.8,0,1.56.33,2.01,1.27l1.13,1.89,1.11-1.89c.43-.9,1.21-1.27,1.97-1.27,1.27,0,2.43,1.01,2.28,1.21l-2.84,4.03,2.82,4.01c.14.21-.95,1.23-2.32,1.23-.78,0-1.52-.41-1.93-1.27l-1.11-1.87-1.11,1.85c-.41.84-1.11,1.29-1.99,1.29-1.25,0-2.4-1.03-2.26-1.23l2.82-4.01Z"/>
    <path class="cls-1" d="M71.28,13.23h-.39c-1.07,0-1.6-.47-1.6-1.42v-.23c0-.86.53-1.34,1.6-1.34h.39v-.29c0-3.14,1.64-4.09,3.88-4.09,1.15,0,1.91.27,2.38.68.37.35.53.76.53,1.19,0,.86-.72,1.6-.76,1.54-.29-.27-.74-.49-1.25-.49-.66,0-.99.31-.99,1.13v.33h.84c1.07,0,1.58.49,1.58,1.42v.23c0,.86-.51,1.34-1.58,1.34h-.7v5.41c0,1.46-.7,1.91-1.77,1.91h-.39c-1.03,0-1.79-.49-1.79-1.91v-5.41ZM80.65,5.38c1.29,0,2.12.72,2.12,1.89s-.78,1.87-2.1,1.87-2.12-.72-2.12-1.87.8-1.89,2.1-1.89ZM78.68,12.04c0-1.4.76-1.89,1.77-1.89h.41c1.07,0,1.77.43,1.77,1.89v6.6c0,1.42-.72,1.91-1.73,1.91h-.41c-1.07,0-1.81-.45-1.81-1.91v-6.6Z"/>
    <path class="cls-1" d="M84.5,22.03c0-1.44,1.27-2.38,3.1-2.61-.23-.23-.33-.56-.33-.92,0-.51.33-.99.84-1.23-1.87-.47-2.94-1.69-2.94-3.35,0-2.24,2.06-3.86,4.95-3.86.66,0,1.29.12,1.87.33l.35-.74c.45-.92,1.01-1.27,1.77-1.27,1.36,0,1.95,1.58,1.85,1.64l-1.77,1.64c.6.64.95,1.4.95,2.24,0,2.1-1.69,3.45-4.42,3.58-.14,0-.29.02-.43.02.04.12.21.23.45.33.31.29,1.05.37,2.08.66,1.42.39,2.9,1.21,2.9,2.98,0,1.99-2.05,3.33-5.67,3.33-3.88,0-5.55-.92-5.55-2.75ZM92.14,21.99c0-.49-.49-.72-1.27-.93-.25-.08-.49-.12-.8-.21-1.23.1-2.01.53-2.01,1.19,0,.6.68.97,2.08.97s2.01-.41,2.01-1.03ZM91.65,13.87c0-.93-.64-1.52-1.52-1.52s-1.5.6-1.5,1.52.64,1.54,1.52,1.54,1.5-.6,1.5-1.54Z"/>
    <path class="cls-2" d="M96.91,22.54c0-.86.7-1.5.76-1.48.23.29.6.45.95.45.56,0,.84-.31.84-.92v-8.55c0-1.4.74-1.89,1.77-1.89h.41c1.05,0,1.77.43,1.77,1.89v8.74c0,2.42-1.34,3.78-3.72,3.78-1.21,0-2.08-.31-2.51-.97-.16-.29-.27-.64-.27-1.05ZM101.43,5.38c1.27,0,2.12.72,2.12,1.89s-.8,1.87-2.1,1.87-2.12-.72-2.12-1.87.78-1.89,2.1-1.89Z"/>
    <path class="cls-2" d="M111.38,10.05c3.33,0,5.51,2.14,5.51,5.34s-2.2,5.34-5.57,5.34-5.51-2.1-5.51-5.37,2.22-5.32,5.57-5.32ZM111.36,13.05c-1.29,0-2.2.95-2.2,2.32s.9,2.34,2.2,2.34,2.18-.99,2.18-2.32-.9-2.34-2.18-2.34Z"/>
    <path class="cls-2" d="M123.08,19.52c-.23.76-.82,1.03-1.56,1.03h-.41c-1.07,0-1.81-.45-1.81-1.91V6.43c0-.14.72-.45,1.52-.45,1.13,0,2.42.6,2.42,3v2.51c.64-.91,1.69-1.44,2.96-1.44,2.79,0,4.62,2.04,4.62,5.32s-1.83,5.37-4.62,5.37c-1.44,0-2.53-.76-3-1.83l-.12.62ZM125.11,13.11c-.88,0-1.52.45-1.87,1.17v1.64c.02,1.09.78,1.75,1.85,1.75,1.19,0,1.99-.9,1.99-2.28s-.78-2.28-1.97-2.28Z"/>
    <path class="cls-2" d="M132.64,18.35c0-.88.86-1.52.95-1.44.7.64,1.93,1.19,3.29,1.19.8,0,1.23-.23,1.23-.64,0-.49-.64-.62-1.62-.84-1.27-.27-3.6-.7-3.6-3.19,0-2.06,1.64-3.37,4.5-3.37,2.18,0,3.54.49,4.05,1.38.18.29.27.6.27.95,0,.93-.99,1.6-1.05,1.54-.74-.72-1.93-1.3-2.98-1.3-.76,0-1.19.25-1.19.68,0,.47.7.55,1.75.8,1.29.29,3.72.74,3.72,3.17,0,2.14-1.64,3.39-4.77,3.39-1.62,0-2.79-.25-3.54-.68-.7-.39-1.01-.95-1.01-1.64Z"/>
  </g>
</svg>